<svg class="h-[14px] opacity-50" viewBox="0 0 13 12" fill="none" xmlns="http://www.w3.org/2000/svg"><path d="M1.10048 3.14063L6.38798 5.69384C6.52566 5.75946 6.70941 5.79375 6.89128 5.79375C7.07316 5.79375 7.25691 5.75946 7.39432 5.69384L12.6818 3.14063C12.9599 3.0067 12.9599 2.78759 12.6818 2.65313L7.39432 0.0999107C7.25691 0.0342857 7.07289 0 6.89128 0C6.70968 0 6.52566 0.0342857 6.38798 0.0999107L1.10048 2.65313C0.822444 2.78759 0.822444 3.00616 1.10048 3.14063Z" fill="#8B949E"></path><path d="M12.6818 5.75624C12.6818 5.75624 11.7162 5.29071 11.5882 5.22803C11.4601 5.16535 11.4256 5.16883 11.2911 5.23124C11.1566 5.29365 7.39111 7.1124 7.39111 7.1124C7.23239 7.18095 7.06095 7.21509 6.88808 7.21258C6.70674 7.21258 6.52245 7.17803 6.38504 7.1124C6.38504 7.1124 2.71941 5.34455 2.54745 5.25937C2.36129 5.16964 2.30772 5.16964 2.13816 5.24999L1.09352 5.75303C0.815486 5.88696 0.815486 6.10633 1.09352 6.24053L6.38183 8.79374C6.51924 8.85937 6.70325 8.89365 6.88486 8.89365C7.06647 8.89365 7.25049 8.85937 7.38817 8.79374L12.6757 6.24106C12.9599 6.10928 12.9599 5.89071 12.6818 5.75624Z" fill="#8B949E"></path><path d="M12.6818 8.85938C12.6818 8.85938 11.7162 8.39384 11.5882 8.33036C11.4601 8.26688 11.4256 8.27116 11.2911 8.33357C11.1566 8.39598 7.39433 10.2188 7.39433 10.2188C7.23558 10.2872 7.06414 10.3213 6.89129 10.3187C6.70995 10.3187 6.52567 10.2844 6.38799 10.2188C6.38799 10.2188 2.72236 8.45089 2.55067 8.36572C2.36317 8.27491 2.30959 8.27491 2.14111 8.35634L1.09647 8.85938C0.818165 8.9933 0.818165 9.21241 1.09647 9.34688L6.38397 11.9001C6.52138 11.9687 6.7054 12 6.887 12C7.06861 12 7.25263 11.9657 7.39004 11.9001L12.6786 9.34822C12.9599 9.21241 12.9599 8.99384 12.6818 8.85938Z" fill="#8B949E"></path></svg>