<svg width="18" height="18" viewBox="0 0 18 18" fill="none" xmlns="http://www.w3.org/2000/svg"><path d="M2.25 2.8125C2.25 2.06658 2.54632 1.35121 3.07376 0.823762C3.60121 0.296316 4.31658 0 5.0625 0L14.9063 0C15.13 0 15.3446 0.0888948 15.5029 0.247129C15.6611 0.405362 15.75 0.619974 15.75 0.84375V14.9062C15.75 15.13 15.6611 15.3446 15.5029 15.5029C15.3446 15.6611 15.13 15.75 14.9063 15.75H12.0938C11.87 15.75 11.6554 15.6611 11.4971 15.5029C11.3389 15.3446 11.25 15.13 11.25 14.9062C11.25 14.6825 11.3389 14.4679 11.4971 14.3096C11.6554 14.1514 11.87 14.0625 12.0938 14.0625H14.0625V11.8125H5.0625C4.84097 11.8125 4.62438 11.878 4.43989 12.0006C4.25539 12.1232 4.11122 12.2976 4.02543 12.5019C3.93965 12.7061 3.91608 12.9311 3.95767 13.1487C3.99927 13.3663 4.10418 13.5668 4.25925 13.725C4.33681 13.8042 4.39802 13.8979 4.43937 14.0007C4.48073 14.1036 4.50142 14.2135 4.50027 14.3244C4.49912 14.4352 4.47615 14.5447 4.43268 14.6467C4.3892 14.7487 4.32606 14.8411 4.24688 14.9186C4.16769 14.9962 4.074 15.0574 3.97116 15.0987C3.86832 15.1401 3.75834 15.1608 3.6475 15.1596C3.53666 15.1585 3.42714 15.1355 3.32517 15.092C3.22321 15.0486 3.13081 14.9854 3.05325 14.9062C2.53768 14.3807 2.24921 13.6737 2.25 12.9375V2.8125ZM14.0625 1.6875H5.0625C4.76413 1.6875 4.47798 1.80603 4.26701 2.017C4.05603 2.22798 3.9375 2.51413 3.9375 2.8125V10.359C4.29226 10.204 4.67535 10.1243 5.0625 10.125H14.0625V1.6875ZM5.625 13.7812C5.625 13.7067 5.65463 13.6351 5.70738 13.5824C5.76012 13.5296 5.83166 13.5 5.90625 13.5H9.84375C9.91834 13.5 9.98988 13.5296 10.0426 13.5824C10.0954 13.6351 10.125 13.7067 10.125 13.7812V17.4375C10.125 17.4897 10.1105 17.5409 10.083 17.5854C10.0555 17.6298 10.0162 17.6657 9.96953 17.6891C9.92281 17.7124 9.87051 17.7223 9.81849 17.7176C9.76647 17.7129 9.71679 17.6938 9.675 17.6625L8.04375 16.4396C7.99514 16.4029 7.9359 16.3831 7.875 16.3831C7.8141 16.3831 7.75486 16.4029 7.70625 16.4396L6.075 17.6625C6.03322 17.6938 5.98353 17.7129 5.93151 17.7176C5.87949 17.7223 5.82719 17.7124 5.78047 17.6891C5.73376 17.6657 5.69447 17.6298 5.66701 17.5854C5.63955 17.5409 5.625 17.4897 5.625 17.4375V13.7812Z" fill="#8B949E" fill-opacity="0.5"></path></svg>