<svg width="18" height="12" viewBox="0 0 18 12" fill="none" xmlns="http://www.w3.org/2000/svg"><path d="M12.69 0.622508L17.4712 5.40376C17.6292 5.56196 17.718 5.77641 17.718 6.00001C17.718 6.2236 17.6292 6.43805 17.4712 6.59626L12.69 11.3775C12.5869 11.4886 12.4557 11.5698 12.3103 11.6125C12.1649 11.6553 12.0106 11.6581 11.8638 11.6205C11.7169 11.583 11.583 11.5065 11.4759 11.3992C11.3689 11.2919 11.2928 11.1577 11.2556 11.0108C11.218 10.8641 11.2206 10.71 11.2632 10.5647C11.3058 10.4194 11.3867 10.2882 11.4975 10.185L15.6825 6.00001L11.4975 1.81501C11.3864 1.71188 11.3052 1.5807 11.2625 1.43529C11.2197 1.28989 11.2169 1.13564 11.2545 0.988802C11.292 0.841962 11.3685 0.707968 11.4758 0.600935C11.5831 0.493903 11.7173 0.417796 11.8642 0.380633C12.0109 0.343039 12.165 0.345662 12.3103 0.388225C12.4556 0.430788 12.5868 0.511719 12.69 0.622508ZM5.30999 0.622508C5.47003 0.473548 5.68159 0.392432 5.9002 0.396208C6.11881 0.399984 6.32744 0.488359 6.48224 0.642758C6.63664 0.797561 6.72501 1.00619 6.72879 1.2248C6.73257 1.44341 6.65145 1.65496 6.50249 1.81501L2.31749 6.00001L6.50249 10.185C6.61356 10.2881 6.69475 10.4193 6.73751 10.5647C6.78028 10.7101 6.78304 10.8644 6.74549 11.0112C6.70795 11.1581 6.63149 11.292 6.52418 11.3991C6.41687 11.5061 6.28268 11.5822 6.13574 11.6194C5.98907 11.657 5.83497 11.6544 5.68966 11.6118C5.54436 11.5692 5.4132 11.4883 5.30999 11.3775L0.52874 6.59626C0.370733 6.43805 0.281982 6.2236 0.281982 6.00001C0.281982 5.77641 0.370733 5.56196 0.52874 5.40376L5.30999 0.622508Z" fill="#8B949E" fill-opacity="0.5"></path></svg>